<svg xmlns="http://www.w3.org/2000/svg" width="200" height="200" fill="none"><g clip-path="url(#a)"><path fill="#FF4F01" d="M194.736 96.208c14.821-26.532-3.326-58.398-33.547-61.408l-11.028-1.099c-8.043-.802-15.228-4.287-21.197-10.987-20.775-23.319-59.46-17.56-72.195 10.455-3.102 6.822-8.71 12.28-15.792 15.368L25.44 55.311C.675 66.108-7.722 96.066 7.921 117.492l9.858 13.501a29.37 29.37 0 0 1 4.646 9.635l4.895 17.997c6.706 24.655 34.67 37.977 59.079 27.615l2.09-.887c6.211-2.637 13.278-3.276 19.895-1.803l32.05 7.136c31.224 6.952 58.746-20.146 51.774-49.932l-4.057-17.324c-1.641-7.013-.595-14.368 2.947-20.708l3.638-6.514Z"/></g><defs><clipPath id="a"><path fill="#fff" d="M0 0h200v200H0z"/></clipPath></defs></svg>