<svg xmlns="http://www.w3.org/2000/svg" width="200" height="200" fill="none"><path fill="#FF4F01" d="M29.289 170.712c10.737 10.737 27.212 12.239 39.555 4.507C72.104 189.414 84.816 200 100 200c15.185 0 27.897-10.587 31.157-24.783 12.343 7.732 28.817 6.23 39.554-4.507 10.737-10.737 12.239-27.211 4.508-39.553C189.414 127.896 200 115.184 200 100s-10.587-27.896-24.782-31.156c7.732-12.343 6.229-28.817-4.508-39.554-10.737-10.737-27.211-12.24-39.554-4.508C127.896 10.587 115.184 0 100 0S72.105 10.587 68.844 24.78C56.5 17.05 40.027 18.553 29.29 29.289c-10.738 10.738-12.24 27.213-4.507 39.556C10.587 72.104 0 84.816 0 100c0 15.185 10.587 27.896 24.782 31.157-7.733 12.343-6.23 28.817 4.507 39.555Z"/></svg>