<svg xmlns="http://www.w3.org/2000/svg" width="200" height="200" fill="none"><path fill="#FF4F01" d="m187.907 100-3.256-3.255 3.256-3.256c10.698-11.628 10.233-29.768-1.395-40.465L140 9.303C128.372-1.395 110.233-.93 99.535 10.698l-3.256 3.256-3.256-3.256C81.396 0 63.256.466 52.558 12.093L8.838 58.605C-1.86 70.233-1.396 88.373 10.232 99.07l3.256 3.256-3.256 3.256C-.465 117.21 0 135.349 11.628 146.047l46.512 43.721c11.628 10.697 29.767 10.232 40.465-1.396l3.256-3.255 3.255 3.255c11.628 10.698 29.768 10.233 40.466-1.395l43.721-46.511C200 128.838 199.535 110.698 187.907 100Z"/></svg>