<svg xmlns="http://www.w3.org/2000/svg" width="32" height="35"><path fill="#FF4F01" d="M15.938 11.715c0-22.907 7.116-6.863 1.356 3.057 5.76-9.92 23.293-11.815 3.34-.361 19.953-11.454 9.538 2.695-1.984 2.695 11.518 0 21.937 14.149 1.984 2.696 19.953 11.453 2.42 9.558-3.34-.363 5.76 9.921-1.356 25.966-1.356 3.057 0 22.909-7.106 6.864-1.356-3.057-5.758 9.921-23.29 11.816-3.338.363-19.952 11.453-9.538-2.696 1.984-2.696-11.52 0-21.936-14.149-1.984-2.695-19.952-11.454-2.42-9.559 3.338.361-5.758-9.92 1.356-25.964 1.356-3.057z"/></svg>